Coordinates
version=1
nRows=17
nColumns=40
inDegrees=yes

Units are S.I. units (second, meters, Newtons, ...)
If the header above contains a line with 'inDegrees', this indicates whether rotational values are in degrees (yes) or radians (no).

endheader
time	pelvis_tilt	pelvis_list	pelvis_rotation	pelvis_tx	pelvis_ty	pelvis_tz	hip_flexion_r	hip_adduction_r	hip_rotation_r	knee_angle_r	knee_angle_r_beta	ankle_angle_r	subtalar_angle_r	mtp_angle_r	hip_flexion_l	hip_adduction_l	hip_rotation_l	knee_angle_l	knee_angle_l_beta	ankle_angle_l	subtalar_angle_l	mtp_angle_l	lumbar_extension	lumbar_bending	lumbar_rotation	arm_flex_r	arm_add_r	arm_rot_r	elbow_flex_r	pro_sup_r	wrist_flex_r	wrist_dev_r	arm_flex_l	arm_add_l	arm_rot_l	elbow_flex_l	pro_sup_l	wrist_flex_l	wrist_dev_l
      0.07000000	     -3.19647298	      7.87940482	      4.69676605	     -0.50729800	      0.89513914	      0.19071766	     31.96878443	    -13.54595441	    -14.86930907	     11.28035783	      0.19687938	     -1.02055614	      3.50297435	      0.00000000	    -17.65889156	      4.66614445	    -14.89200621	     12.41379328	      0.21666157	      5.42556354	     14.66191400	      0.00000000	      0.42527618	     -5.36324694	      2.60004332	     43.80527574	    -16.36078361	     43.80527574	     75.38031257	     44.83711861	      0.00000000	      0.00000000	     43.80527574	    -16.36078361	     43.80527574	     75.38031257	     44.83711861	      0.00000000	      0.00000000
      0.07500000	     -2.92662497	      7.62410903	      4.64366942	     -0.49916377	      0.89517988	      0.19167340	     31.62402002	    -13.22047715	    -14.72234470	     11.91177366	      0.20789967	     -1.46568278	      3.09749601	      0.00000000	    -18.03755992	      4.17730942	    -14.95047554	     13.03467509	      0.22749800	      4.46706170	     14.10529537	      0.00000000	      0.16505529	     -5.03586612	      2.41596949	     43.80613553	    -16.35916503	     43.80613553	     75.37942706	     44.83817034	      0.00000000	      0.00000000	     43.80613553	    -16.35916503	     43.80613553	     75.37942706	     44.83817034	      0.00000000	      0.00000000
      0.08000000	     -2.68646296	      7.32702444	      4.65427965	     -0.49092118	      0.89522257	      0.19241266	     31.27711953	    -12.90752378	    -14.62939339	     12.56696564	      0.21933493	     -2.00189250	      2.61144337	      0.00000000	    -18.37748700	      3.64181750	    -14.88340779	     13.66962161	      0.23857990	      3.53010559	     13.54561177	      0.00000000	     -0.00376184	     -4.59550454	      2.16532646	     43.80693556	    -16.35765966	     43.80693556	     75.37860443	     44.83914334	      0.00000000	      0.00000000	     43.80693556	    -16.35765966	     43.80693556	     75.37860443	     44.83914334	      0.00000000	      0.00000000
      0.08500000	     -2.19414682	      6.42434524	      5.08094303	     -0.48259395	      0.89626751	      0.19191908	     30.16995458	    -12.15701790	    -15.19577946	     12.56737382	      0.21934205	     -3.07920636	      1.81099986	      0.00000000	    -18.92821754	      2.41253017	    -14.35817066	     14.26566465	      0.24898282	      2.56061589	     12.66602456	      0.00000000	     -0.45653898	     -3.39520977	      1.16405687	     43.81296718	    -16.34632944	     43.81296718	     75.37243865	     44.84632515	      0.00000000	      0.00000000	     43.81296718	    -16.34632944	     43.81296718	     75.37243865	     44.84632515	      0.00000000	      0.00000000
      0.09000000	     -1.92111633	      6.15995452	      4.92546626	     -0.47441116	      0.89649281	      0.19310644	     29.87271311	    -11.80153674	    -15.07331295	     13.31608777	      0.23240958	     -3.57848075	      1.48694891	      0.00000000	    -19.18737850	      1.92427658	    -14.51815770	     15.06882882	      0.26300068	      1.40797525	     12.01173446	      0.00000000	     -0.66580245	     -3.08692174	      0.93804490	     43.81371145	    -16.34493423	     43.81371145	     75.37168312	     44.84718972	      0.00000000	      0.00000000	     43.81371145	    -16.34493423	     43.81371145	     75.37168312	     44.84718972	      0.00000000	      0.00000000
      0.09500000	     -1.65341717	      5.80964550	      4.84771302	     -0.46624032	      0.89684305	      0.19405445	     29.55932246	    -11.42242464	    -15.03180237	     14.10531579	      0.24618420	     -4.13496502	      1.06661196	      0.00000000	    -19.37868604	      1.33986640	    -14.62867079	     15.94236641	      0.27824678	      0.20285806	     11.18143129	      0.00000000	     -0.87114278	     -2.66969772	      0.67393663	     43.81448666	    -16.34348162	     43.81448666	     75.37089731	     44.84808562	      0.00000000	      0.00000000	     43.81448666	    -16.34348162	     43.81448666	     75.37089731	     44.84808562	      0.00000000	      0.00000000
      0.10000000	     -1.37046655	      5.43220613	      4.73613517	     -0.45808550	      0.89732094	      0.19506237	     29.22162226	    -11.00440607	    -15.00380712	     14.88249068	      0.25974846	     -4.67210943	      0.67072420	      0.00000000	    -19.53929164	      0.73776241	    -14.72456832	     16.89011152	      0.29478806	     -1.09027282	     10.27225592	      0.00000000	     -1.08339754	     -2.19943553	      0.39203937	     43.81520032	    -16.34214491	     43.81520032	     75.37017492	     44.84890625	      0.00000000	      0.00000000	     43.81520032	    -16.34214491	     43.81520032	     75.37017492	     44.84890625	      0.00000000	      0.00000000
      0.10500000	     -1.09067707	      4.95120219	      4.70014868	     -0.44991825	      0.89793562	      0.19584183	     28.84283287	    -10.53493889	    -15.16171387	     15.63197755	      0.27282948	     -5.25660296	      0.14760554	      0.00000000	    -19.60279235	      0.01434936	    -14.76437928	     17.97035736	      0.31364190	     -2.46138042	      9.13364776	      0.00000000	     -1.26942247	     -1.60625078	      0.05115999	     43.81626648	    -16.34014887	     43.81626648	     75.36909745	     44.85012504	      0.00000000	      0.00000000	     43.81626648	    -16.34014887	     43.81626648	     75.36909745	     44.85012504	      0.00000000	      0.00000000
      0.11000000	     -0.77810517	      4.43872079	      4.63372870	     -0.44178187	      0.89868973	      0.19666282	     28.40724702	    -10.00878775	    -15.27564357	     16.33387816	      0.28507995	     -5.79203949	     -0.31729344	      0.00000000	    -19.64221208	     -0.74690905	    -14.85501638	     19.14352022	      0.33411746	     -3.91521431	      7.94685804	      0.00000000	     -1.46402774	     -0.97359263	     -0.31857784	     43.81749215	    -16.33785562	     43.81749215	     75.36786142	     44.85151549	      0.00000000	      0.00000000	     43.81749215	    -16.33785562	     43.81749215	     75.36786142	     44.85151549	      0.00000000	      0.00000000
      0.11500000	     -0.47543713	      3.75611693	      4.64687542	     -0.43370220	      0.89954929	      0.19722591	     27.88335782	     -9.33014306	    -15.51234339	     16.87147794	      0.29446284	     -6.40679783	     -0.90541448	      0.00000000	    -19.55610833	     -1.70509183	    -14.84071213	     20.50192524	      0.35782610	     -5.31567815	      6.68334233	      0.00000000	     -1.65540847	     -0.11477846	     -0.83938060	     43.81990799	    -16.33333981	     43.81990799	     75.36543309	     44.85422405	      0.00000000	      0.00000000	     43.81990799	    -16.33333981	     43.81990799	     75.36543309	     44.85422405	      0.00000000	      0.00000000
      0.12000000	     -0.11091507	      3.30671650	      4.36775677	     -0.42563324	      0.90052672	      0.19862604	     27.41621902	     -8.72806833	    -15.36953380	     17.55427803	      0.30637995	     -6.68383141	     -1.23021865	      0.00000000	    -19.55215923	     -2.40355245	    -15.25537077	     21.84840239	      0.38132656	     -7.01002339	      5.54426139	      0.00000000	     -1.96391895	      0.32463662	     -1.10676761	     43.82095294	    -16.33138854	     43.82095294	     75.36438640	     44.85538126	      0.00000000	      0.00000000	     43.82095294	    -16.33138854	     43.82095294	     75.36438640	     44.85538126	      0.00000000	      0.00000000
      0.12500000	      0.20222081	      2.84685869	      4.08701514	     -0.41766854	      0.90142918	      0.20002137	     27.00592340	     -8.10752438	    -15.20498219	     18.23779994	      0.31830966	     -6.92031404	     -1.68548102	      0.00000000	    -19.39565151	     -3.11404608	    -15.60764409	     23.37504349	      0.40797147	     -8.71169097	      4.24063923	      0.00000000	     -2.20160036	      0.79953694	     -1.34162498	     43.82184437	    -16.32972490	     43.82184437	     75.36349521	     44.85636170	      0.00000000	      0.00000000	     43.82184437	    -16.32972490	     43.82184437	     75.36349521	     44.85636170	      0.00000000	      0.00000000
      0.13000000	      0.42014993	      1.68317688	      4.06658995	     -0.40970088	      0.90222743	      0.20075145	     26.32948629	     -6.72022604	    -15.11331232	     18.20953232	      0.31781629	     -7.74317918	     -2.98498607	      0.00000000	    -18.82656768	     -4.80750767	    -16.30581516	     25.54994863	      0.44593073	     -9.83347516	      3.38183442	      0.00000000	     -2.22841522	      2.16964519	     -1.91231100	     43.82965396	    -16.31518581	     43.82965396	     75.35575358	     44.86469404	      0.00000000	      0.00000000	     43.82965396	    -16.31518581	     43.82965396	     75.35575358	     44.86469404	      0.00000000	      0.00000000
      0.13500000	      0.59642258	      1.16635118	      3.77366872	     -0.40187118	      0.90289268	      0.20220769	     26.04258104	     -5.98970538	    -14.83417385	     18.83506958	      0.32873398	     -7.89673745	     -3.69783928	      0.00000000	    -18.36186970	     -5.62095163	    -16.66486791	     27.39296947	      0.47809751	    -11.54775107	      1.88518181	      0.00000000	     -2.29811621	      2.67403687	     -2.06177256	     43.83245743	    -16.30998154	     43.83245743	     75.35300167	     44.86758203	      0.00000000	      0.00000000	     43.83245743	    -16.30998154	     43.83245743	     75.35300167	     44.86758203	      0.00000000	      0.00000000
      0.14000000	      0.82004166	      0.70445687	      3.44746241	     -0.39406291	      0.90370608	      0.20374932	     25.66971181	     -5.28160208	    -14.44137608	     19.42873419	      0.33909538	     -7.87105411	     -4.23512343	      0.00000000	    -17.92900269	     -6.41698211	    -17.16669807	     29.24999249	      0.51050868	    -13.42665022	      0.45142126	      0.00000000	     -2.44131074	      3.12813842	     -2.19445387	     43.83378605	    -16.30751803	     43.83378605	     75.35170266	     44.86893155	      0.00000000	      0.00000000	     43.83378605	    -16.30751803	     43.83378605	     75.35170266	     44.86893155	      0.00000000	      0.00000000
      0.14500000	      0.88336498	      0.09284701	      3.13199638	     -0.38638122	      0.90417833	      0.20533342	     25.42919044	     -4.38227562	    -14.05463697	     19.89576751	      0.34724665	     -7.92026831	     -5.08175236	      0.00000000	    -17.18713066	     -7.42635795	    -17.66673287	     31.39802166	      0.54799886	    -15.16308766	     -1.04829128	      0.00000000	     -2.38026400	      3.75218018	     -2.31226186	     43.83544975	    -16.30443577	     43.83544975	     75.35008068	     44.87060418	      0.00000000	      0.00000000	     43.83544975	    -16.30443577	     43.83544975	     75.35008068	     44.87060418	      0.00000000	      0.00000000
      0.15000000	      0.87111260	     -1.22645849	      2.88662178	     -0.37874583	      0.90441264	      0.20693322	     24.95318527	     -2.56807998	    -13.50873255	     19.64168907	      0.34281215	     -8.57694116	     -6.83421613	      0.00000000	    -16.14136549	     -9.52929787	    -18.74397018	     34.19887411	      0.59688295	    -16.03350988	     -1.51970678	      0.00000000	     -2.17757869	      5.28313908	     -2.42449010	     43.84278724	    -16.29087595	     43.84278724	     75.34298857	     44.87775734	      0.00000000	      0.00000000	     43.84278724	    -16.29087595	     43.84278724	     75.34298857	     44.87775734	      0.00000000	      0.00000000
